<svg id="Layer_1" data-name="Layer 1" xmlns="http://www.w3.org/2000/svg" viewBox="0 0 287 53"><defs><style>.cls-1{fill:#5a6473;}.cls-2{fill:#f25e6b;}.cls-3,.cls-4{fill:none;stroke-miterlimit:10;}.cls-3{stroke:#f25e6b;}.cls-4{stroke:#5a6473;}</style></defs><title>myart</title><g id="right-circle"><circle class="cls-1" cx="260.5" cy="26.5" r="26"/><path class="cls-1" d="M498.5,274A25.5,25.5,0,1,1,473,299.5,25.53,25.53,0,0,1,498.5,274m0-1A26.5,26.5,0,1,0,525,299.5,26.49,26.49,0,0,0,498.5,273Z" transform="translate(-238 -273)"/></g><g id="left-circle"><circle class="cls-2" cx="26.5" cy="26.5" r="26"/><path class="cls-2" d="M264.5,274A25.5,25.5,0,1,1,239,299.5,25.53,25.53,0,0,1,264.5,274m0-1A26.5,26.5,0,1,0,291,299.5,26.49,26.49,0,0,0,264.5,273Z" transform="translate(-238 -273)"/></g><g id="right-line"><line class="cls-3" x1="153" y1="28.5" x2="228" y2="28.5"/><line class="cls-2" x1="153" y1="28.5" x2="228" y2="28.5"/></g><g id="left-line"><line class="cls-4" x1="60" y1="28.5" x2="135" y2="28.5"/><line class="cls-1" x1="60" y1="28.5" x2="135" y2="28.5"/></g></svg>