<?xml version="1.0" encoding="utf-8"?>
<!-- Generator: Adobe Illustrator 21.0.0, SVG Export Plug-In . SVG Version: 6.00 Build 0)  -->
<svg version="1.1" id="OZONE" xmlns="http://www.w3.org/2000/svg" xmlns:xlink="http://www.w3.org/1999/xlink" x="0px" y="0px"
	 viewBox="0 0 1000 1000" style="enable-background:new 0 0 1000 1000;" xml:space="preserve">
<style type="text/css">
	.st0{fill:#585F72;}
	.st1{fill:none;stroke:#585F72;stroke-width:31;stroke-miterlimit:10;}
	.st2{fill:none;stroke:#585F72;stroke-width:24;stroke-miterlimit:10;}
</style>
<path class="st0" d="M278.7,511.7l88-107.8h-75.6c-5.3,0-9.3-1.2-12-3.6c-2.7-2.4-4-6.6-4-10.5c0-4.1,1.3-7.4,4-10
	c2.7-2.5,6.7-3.8,12-3.8h97.4c12.6,0,21.9,3.1,21.9,15.2c0,5.8-4.1,13.4-6.2,16.9c-2.1,3.5-6.3,9.1-12.7,16.8l-82.2,101.2H400
	c5.4,0,9.4,1.1,12,3.4c2.6,2.3,4,5.5,4,9.6c0,4.3-1.3,7.6-4,10.1c-2.6,2.5-6.7,3.7-12,3.7H288.8c-7.6,0-14.2-0.8-18.1-4.3
	c-3.8-3.5-4.7-9.2-4.7-15.1c0-2,0.3-3.9,0.9-5.6c0.6-1.7,1.5-3.3,2.5-4.8c1.1-1.5,2.5-3.4,4.4-5.7
	C275.7,515.4,277.3,513.4,278.7,511.7z"/>
<circle class="st1" cx="513.8" cy="462.8" r="73.8"/>
<path class="st0" d="M654.3,400.3L732,500l-2.3-102.6c0-6.8,1.4-11.9,4.3-15.3c2.9-3.4,6.8-5.1,11.6-5.1c5,0,6,0.7,8.9,4.1
	c2.9,3.4,4.4,8.5,4.4,15.3v138.5c0,15.5-8,17.2-10.9,18.2c-3,1-7,0.5-9.5-0.4c-2.5-0.9-3.9-2.4-6.1-4.4c-2.2-2-4-4.5-6.1-7
	c-4.3-5.2-2.8-2.4-4.7-5.2l-78.8-103.5l2,104.2c0,6.7-0.5,9.8-3.6,13.3c-3.1,3.4-7,5.2-11.8,5.2c-5,0-7.9-0.7-10.9-4.2
	c-3-3.5-4.5-6.5-4.5-13.2l-3-132.8c0-5.8-0.4-11.3,0.9-14.6c1.5-3.6,3-6.5,6.4-8.8c3.5-2.3,6.7-3.4,10.2-3.4c3.2,0,4.9,0.5,7.1,1.6
	c2.2,1,4.2,2.4,5.9,4.2c1.7,1.8,2.4,3.3,5.2,6.8C648.8,393.2,652.4,397.3,654.3,400.3z"/>
<path class="st0" d="M882.7,404h-76.2v43.9h53.1c5.2,0,9,1.2,11.6,3.7c2.5,2.5,3.8,5.8,3.8,9.8c0,4.1-1.3,7.4-3.8,9.9
	s-6.4,3.8-11.6,3.8h-53.1v50.9h76.8c5.3,0,9.3,1.3,12,4c2.7,2.6,4,6.2,4,10.6c0,4.2-1.3,7.7-4,10.3c-2.7,2.6-6.7,4-12,4h-89.9
	c-7.4,0-12.7-1.7-15.9-5.2c-3.2-3.5-4.8-9.2-4.8-17V398.2c0-5.2,0.7-9.5,2.2-12.8c1.4-3.3,3.7-5.7,6.8-7.2c3.1-1.5,7-2.3,11.8-2.3
	h89.3c5.4,0,9.4,1.3,12,3.8c2.6,2.6,3.9,5.9,3.9,10.1c0,4.2-1.3,7.6-3.9,10.2C892.1,402.7,888.1,404,882.7,404z"/>
<circle class="st2" cx="171.5" cy="442.5" r="50.5"/>
<g>
	<g>
		<path class="st0" d="M216,528.5c-26,0-52,0-78,0c-3.7,0-7.4,0-11,0c-15.4,0-15.5,24,0,24c26,0,52,0,78,0c3.7,0,7.4,0,11,0
			C231.4,552.5,231.5,528.5,216,528.5L216,528.5z"/>
	</g>
</g>
</svg>
